{"title":"How to Train Your Dragon (2010) BRrip 720p x264 Dual Audio [Eng","uid":10406344,"size":1320821357,"categoryP":"video","categoryS":"hd___movies","magnet":"?xt=urn:btih:53e38372aad73d6d103fdd049da39eb57c2351e1&amp;dn=How+to+Train+Your+Dragon+%282010%29+BRrip+720p+x264+Dual+Audio+%5BEng+&amp;tr=udp%3A%2F%2Ftracker.openbittorrent.com%3A80&amp;tr=udp%3A%2F%2Fopen.demonii.com%3A1337&amp;tr=udp%3A%2F%2Ftracker.coppersurfer.tk%3A6969&amp;tr=udp%3A%2F%2Fexodus.desync.com%3A6969","seeders":8,"leechers":5,"uploader":"Xdesiars","files":4,"time":1403461807,"description":"Format                                   : Matroska\nFormat version                           : Version 2\nFile size                                : 1.22 GiB\nDuration                                 : 1h 37mn\nOverall bit rate                         : 1 783 Kbps\nMovie name                               : How to Train Your Dragon (2010) by XdesiArsenal [ExD-XMR]\nEncoded date                             : UTC 2014-06-22 14:52:50\nWriting application                      : mkvmerge v5.0.1 ('Es ist Sommer') built on Nov 23 2011 20:48:57\nWriting library                          : libebml v1.2.2 + libmatroska v1.3.0\n\nVideo\nID                                       : 1\nFormat                                   : AVC\nFormat/Info                              : Advanced Video Codec\nFormat profile                           : &lt;a class=&quot;__cf_email__&quot; href=&quot;/cdn-cgi/l/email-protection&quot; data-cfemail=&quot;1058797778505c233e21&quot;&gt;[email&amp;#160;protected]&lt;/a&gt;&lt;script cf-hash='f9e31' type=&quot;text/javascript&quot;&gt;\n/* &lt;![CDATA[ */!function(){try{var t=&quot;currentScript&quot;in document?document.currentScript:function(){for(var t=document.getElementsByTagName(&quot;script&quot;),e=t.length;e--;)if(t[e].getAttribute(&quot;cf-hash&quot;))return t[e]}();if(t&amp;&amp;t.previousSibling){var e,r,n,i,c=t.previousSibling,a=c.getAttribute(&quot;data-cfemail&quot;);if(a){for(e=&quot;&quot;,r=parseInt(a.substr(0,2),16),n=2;a.length-n;n+=2)i=parseInt(a.substr(n,2),16)^r,e+=String.fromCharCode(i);e=document.createTextNode(e),c.parentNode.replaceChild(e,c)}}}catch(u){}}();/* ]]&gt; */&lt;/script&gt;\nFormat settings, CABAC                   : Yes\nFormat settings, ReFrames                : 4 frames\nMuxing mode                              : Header stripping\nCodec ID                                 : V_MPEG4/ISO/AVC\nDuration                                 : 1h 37mn\nBit rate                                 : 1 491 Kbps\nWidth                                    : 1 280 pixels\nHeight                                   : 544 pixels\nDisplay aspect ratio                     : 2.35:1\nFrame rate mode                          : Constant\nFrame rate                               : 23.976 fps\nColor space                              : YUV\nChroma subsampling                       : 4:2:0\nBit depth                                : 8 bits\nScan type                                : Progressive\nBits/(Pixel*Frame)                       : 0.089\nStream size                              : 1.02 GiB (84%)\nTitle                                    : How to Train Your Dragon (2010) by XdesiArsenal [ExD-XMR]\nWriting library                          : x264 core 112\nLanguage                                 : English\nDefault                                  : Yes\nForced                                   : No\nColor primaries                          : BT.709\nTransfer characteristics                 : BT.709\nMatrix coefficients                      : BT.709\n\nAudio #1\nID                                       : 2\nFormat                                   : AC-3\nFormat/Info                              : Audio Coding 3\nMode extension                           : CM (complete main)\nFormat settings, Endianness              : Big\nMuxing mode                              : Header stripping\nCodec ID                                 : A_AC3\nDuration                                 : 1h 37mn\nBit rate mode                            : Constant\nBit rate                                 : 128 Kbps\nChannel(s)                               : 6 channels\nChannel positions                        : Front: L C R, Side: L R, LFE\nSampling rate                            : 48.0 KHz\nBit depth                                : 16 bits\nCompression mode                         : Lossy\nStream size                              : 89.6 MiB (7%)\nTitle                                    : XdesiArsenal [DD 5.1]\nLanguage                                 : Hindi\nDefault                                  : Yes\nForced                                   : No\n\nAudio #2\nID                                       : 3\nFormat                                   : AC-3\nFormat/Info                              : Audio Coding 3\nMode extension                           : CM (complete main)\nFormat settings, Endianness              : Big\nMuxing mode                              : Header stripping\nCodec ID                                 : A_AC3\nDuration                                 : 1h 37mn\nBit rate mode                            : Constant\nBit rate                                 : 128 Kbps\nChannel(s)                               : 6 channels\nChannel positions                        : Front: L C R, Side: L R, LFE\nSampling rate                            : 48.0 KHz\nBit depth                                : 16 bits\nCompression mode                         : Lossy\nStream size                              : 89.6 MiB (7%)\nTitle                                    : XdesiArsenal [DD 5.1]\nLanguage                                 : English\nDefault                                  : No\nForced                                   : No\n\nMenu\n00:00:00.000                             : en:Chapter 1\n00:08:39.936                             : en:Chapter 2\n00:11:31.983                             : en:Chapter 3\n00:15:11.035                             : en:Chapter 4\n00:21:57.191                             : en:Chapter 5\n00:27:41.702                             : en:Chapter 6\n00:33:14.201                             : en:Chapter 7\n00:39:07.136                             : en:Chapter 8\n00:43:28.856                             : en:Chapter 9\n00:47:08.367                             : en:Chapter 10\n00:49:47.193                             : en:Chapter 11\n00:59:55.801                             : en:Chapter 12\n01:04:47.383                             : en:Chapter 13\n01:09:28.164                             : en:Chapter 14\n01:12:38.187                             : en:Chapter 15\n01:23:26.043                             : en:Chapter 16\n01:28:54.496                             : en:Chapter 17\n","torrent":{"xt":"urn:btih:53e38372aad73d6d103fdd049da39eb57c2351e1","amp;dn":"How+to+Train+Your+Dragon+%282010%29+BRrip+720p+x264+Dual+Audio+%5BEng+","amp;tr":["udp%3A%2F%2Ftracker.openbittorrent.com%3A80","udp%3A%2F%2Fopen.demonii.com%3A1337","udp%3A%2F%2Ftracker.coppersurfer.tk%3A6969","udp%3A%2F%2Fexodus.desync.com%3A6969"],"infoHash":"53e38372aad73d6d103fdd049da39eb57c2351e1","infoHashBuffer":{"type":"Buffer","data":[83,227,131,114,170,215,61,109,16,63,221,4,157,163,158,181,124,35,81,225]},"announce":[],"urlList":[]}}